<?xml version="1.0" standalone="no"?>
<!DOCTYPE svg PUBLIC "-//W3C//DTD SVG 20010904//EN"
 "http://www.w3.org/TR/2001/REC-SVG-20010904/DTD/svg10.dtd">
<svg version="1.0" xmlns="http://www.w3.org/2000/svg"
 width="300.000000pt" height="300.000000pt" viewBox="0 0 300.000000 300.000000"
 preserveAspectRatio="xMidYMid meet">
<metadata>
Created by potrace 1.14, written by Peter Selinger 2001-2017
</metadata>
<g transform="translate(0.000000,300.000000) scale(0.100000,-0.100000)"
fill="#000000" stroke="none">
<path d="M1473 2985 c-10 -7 -42 -26 -69 -42 -45 -25 -305 -175 -372 -214 -15
-9 -47 -27 -72 -41 -25 -14 -133 -76 -240 -138 -107 -62 -208 -121 -225 -130
-16 -10 -88 -51 -160 -93 l-130 -75 0 -752 0 -753 30 -17 c17 -10 129 -75 250
-145 121 -70 238 -137 260 -150 22 -12 94 -54 160 -92 168 -98 372 -216 493
-285 l102 -58 553 319 c303 175 595 344 647 374 l95 55 2 750 1 751 -151 88
c-84 48 -159 93 -169 98 -9 6 -29 17 -45 26 -15 8 -134 76 -263 151 -129 75
-251 145 -270 155 -19 11 -112 65 -206 120 -94 55 -178 103 -187 106 -8 3 -23
-1 -34 -8z"/>
</g>
</svg>
